<svg xmlns="http://www.w3.org/2000/svg" viewBox="0 0 640 420" role="img" aria-label="Hard drive and micromotors">
  <defs>
    <linearGradient id="bg" x1="0" y1="0" x2="1" y2="1">
      <stop offset="0%" stop-color="hsl(36 65% 14%)"/>
      <stop offset="100%" stop-color="hsl(86 65% 9%)"/>
    </linearGradient>
    <linearGradient id="accent" x1="0" y1="0" x2="1" y2="1">
      <stop offset="0%" stop-color="hsl(36 88% 62%)"/>
      <stop offset="100%" stop-color="hsl(66 88% 52%)"/>
    </linearGradient>
  </defs>
  <rect width="640" height="420" rx="32" fill="url(#bg)"/>
  <g opacity="0.15" fill="none" stroke="white">
    <path d="M40 80h560"/>
    <path d="M40 340h560"/>
    <path d="M94 44v332"/>
    <path d="M540 44v332"/>
  </g>
  <circle cx="516" cy="110" r="96" fill="hsl(36 80% 58%)" opacity="0.12"/>
  <path d="M88 86h204a42 42 0 0 1 42 42v164a42 42 0 0 1-42 42H88a42 42 0 0 1-42-42V128a42 42 0 0 1 42-42zm42 64l110 58m-20-72a54 54 0 1 1-54 54" transform="translate(110 40) scale(1.25)" fill="none" stroke="url(#accent)" stroke-width="12" stroke-linecap="round" stroke-linejoin="round"/>
  <text x="58" y="84" fill="white" font-family="Inter,Segoe UI,Arial" font-size="18" letter-spacing="3">HDD</text>
  <text x="58" y="336" fill="white" font-family="Inter,Segoe UI,Arial" font-size="34" font-weight="700">Hard drive and micromotors</text>
  <text x="58" y="372" fill="rgba(255,255,255,0.72)" font-family="Inter,Segoe UI,Arial" font-size="18">Nd, Pr, Dy</text>
</svg>