<svg xmlns="http://www.w3.org/2000/svg" viewBox="0 0 640 420" role="img" aria-label="Headphones and speakers">
  <defs>
    <linearGradient id="bg" x1="0" y1="0" x2="1" y2="1">
      <stop offset="0%" stop-color="hsl(241 65% 14%)"/>
      <stop offset="100%" stop-color="hsl(291 65% 9%)"/>
    </linearGradient>
    <linearGradient id="accent" x1="0" y1="0" x2="1" y2="1">
      <stop offset="0%" stop-color="hsl(241 88% 62%)"/>
      <stop offset="100%" stop-color="hsl(271 88% 52%)"/>
    </linearGradient>
  </defs>
  <rect width="640" height="420" rx="32" fill="url(#bg)"/>
  <g opacity="0.15" fill="none" stroke="white">
    <path d="M40 80h560"/>
    <path d="M40 340h560"/>
    <path d="M94 44v332"/>
    <path d="M540 44v332"/>
  </g>
  <circle cx="516" cy="110" r="96" fill="hsl(241 80% 58%)" opacity="0.12"/>
  <path d="M78 186c0-68 52-122 116-122s116 54 116 122v82h-38v-82c0-47-35-84-78-84s-78 37-78 84v82H78zm12 66h52v82H90zm154 0h52v82h-52z" transform="translate(110 40) scale(1.25)" fill="none" stroke="url(#accent)" stroke-width="12" stroke-linecap="round" stroke-linejoin="round"/>
  <text x="58" y="84" fill="white" font-family="Inter,Segoe UI,Arial" font-size="18" letter-spacing="3">HEADPHONES</text>
  <text x="58" y="336" fill="white" font-family="Inter,Segoe UI,Arial" font-size="34" font-weight="700">Headphones and speakers</text>
  <text x="58" y="372" fill="rgba(255,255,255,0.72)" font-family="Inter,Segoe UI,Arial" font-size="18">Nd, Pr, Sm</text>
</svg>