<svg xmlns="http://www.w3.org/2000/svg" viewBox="0 0 640 420" role="img" aria-label="Smartphone">
  <defs>
    <linearGradient id="bg" x1="0" y1="0" x2="1" y2="1">
      <stop offset="0%" stop-color="hsl(210 65% 14%)"/>
      <stop offset="100%" stop-color="hsl(260 65% 9%)"/>
    </linearGradient>
    <linearGradient id="accent" x1="0" y1="0" x2="1" y2="1">
      <stop offset="0%" stop-color="hsl(210 88% 62%)"/>
      <stop offset="100%" stop-color="hsl(240 88% 52%)"/>
    </linearGradient>
  </defs>
  <rect width="640" height="420" rx="32" fill="url(#bg)"/>
  <g opacity="0.15" fill="none" stroke="white">
    <path d="M40 80h560"/>
    <path d="M40 340h560"/>
    <path d="M94 44v332"/>
    <path d="M540 44v332"/>
  </g>
  <circle cx="516" cy="110" r="96" fill="hsl(210 80% 58%)" opacity="0.12"/>
  <path d="M80 60h180a22 22 0 0 1 22 22v256a22 22 0 0 1-22 22H80a22 22 0 0 1-22-22V82A22 22 0 0 1 80 60zm90 248a16 16 0 1 0 0 32a16 16 0 0 0 0-32zm-64-206h128" transform="translate(110 40) scale(1.25)" fill="none" stroke="url(#accent)" stroke-width="12" stroke-linecap="round" stroke-linejoin="round"/>
  <text x="58" y="84" fill="white" font-family="Inter,Segoe UI,Arial" font-size="18" letter-spacing="3">SMARTPHONE</text>
  <text x="58" y="336" fill="white" font-family="Inter,Segoe UI,Arial" font-size="34" font-weight="700">Smartphone</text>
  <text x="58" y="372" fill="rgba(255,255,255,0.72)" font-family="Inter,Segoe UI,Arial" font-size="18">Nd, Pr, Dy, La, Eu, Y</text>
</svg>